<svg width="29" height="35" viewBox="0 0 29 30" fill="none" xmlns="http://www.w3.org/2000/svg">
<path fill-rule="evenodd" clip-rule="evenodd" d="M4.50368 7.42043C3.625 8.29911 3.625 9.71332 3.625 12.5417V17.4584C3.625 20.2868 3.625 21.7011 4.50368 22.5797C5.38236 23.4584 6.79657 23.4584 9.625 23.4584H19.375C22.2034 23.4584 23.6176 23.4584 24.4963 22.5797C25.375 21.7011 25.375 20.2868 25.375 17.4584V12.5417C25.375 9.71332 25.375 8.29911 24.4963 7.42043C23.6176 6.54175 22.2034 6.54175 19.375 6.54175H9.625C6.79657 6.54175 5.38236 6.54175 4.50368 7.42043ZM8.49614 11.1318C8.01662 10.8577 7.40577 11.0243 7.13176 11.5039C6.85775 11.9834 7.02434 12.5942 7.50386 12.8682L14.0077 16.5847C14.6226 16.9361 15.3774 16.9361 15.9923 16.5847L22.4961 12.8682C22.9757 12.5942 23.1423 11.9834 22.8682 11.5039C22.5942 11.0243 21.9834 10.8577 21.5039 11.1318L15 14.8482L8.49614 11.1318Z" fill="white"/>
</svg>
