<svg width="26" height="30" viewBox="0 0 26 30" fill="none" xmlns="http://www.w3.org/2000/svg">
<g filter="url(#filter0_d_1_900)">
<path d="M5 9C5 6.17157 5 4.75736 5.87868 3.87868C6.75736 3 8.17157 3 11 3H15C17.8284 3 19.2426 3 20.1213 3.87868C21 4.75736 21 6.17157 21 9V15.8276C21 18.5109 21 19.8525 20.1557 20.2629C19.3114 20.6733 18.2565 19.8444 16.1465 18.1866L15.4713 17.656C14.2849 16.7239 13.6917 16.2578 13 16.2578C12.3083 16.2578 11.7151 16.7239 10.5287 17.656L9.85346 18.1866C7.74355 19.8444 6.68859 20.6733 5.84429 20.2629C5 19.8525 5 18.5109 5 15.8276V9Z" fill="#7E869E" fill-opacity="0.25" stroke="white" stroke-width="1.4"/>
</g>
<defs>
<filter id="filter0_d_1_900" x="-3" y="0" width="32" height="32" filterUnits="userSpaceOnUse" color-interpolation-filters="sRGB">
<feFlood flood-opacity="0" result="BackgroundImageFix"/>
<feColorMatrix in="SourceAlpha" type="matrix" values="0 0 0 0 0 0 0 0 0 0 0 0 0 0 0 0 0 0 127 0" result="hardAlpha"/>
<feOffset dy="4"/>
<feGaussianBlur stdDeviation="2"/>
<feComposite in2="hardAlpha" operator="out"/>
<feColorMatrix type="matrix" values="0 0 0 0 0 0 0 0 0 0 0 0 0 0 0 0 0 0 0.25 0"/>
<feBlend mode="normal" in2="BackgroundImageFix" result="effect1_dropShadow_1_900"/>
<feBlend mode="normal" in="SourceGraphic" in2="effect1_dropShadow_1_900" result="shape"/>
</filter>
</defs>
</svg>
